<?xml version="1.0"?>
<svg width="12" height="12" xmlns="http://www.w3.org/2000/svg" xmlns:svg="http://www.w3.org/2000/svg">
 <g class="layer">
  <title>Layer 1</title>
  <path d="m7.414,6l4.263,4.263c0.155,0.155 0.245,0.302 0.292,0.455a0.787,0.787 0 0 1 0,0.463c-0.047,0.154 -0.137,0.3 -0.292,0.456l-0.04,0.04a1.087,1.087 0 0 1 -0.456,0.292a0.787,0.787 0 0 1 -0.463,0a1.087,1.087 0 0 1 -0.455,-0.292l-4.263,-4.263l-4.263,4.263a1.087,1.087 0 0 1 -0.455,0.292a0.787,0.787 0 0 1 -0.463,0a1.087,1.087 0 0 1 -0.456,-0.292l-0.04,-0.04a1.087,1.087 0 0 1 -0.292,-0.456a0.787,0.787 0 0 1 0,-0.463c0.047,-0.153 0.137,-0.3 0.292,-0.455l4.263,-4.263l-4.263,-4.263a1.087,1.087 0 0 1 -0.292,-0.455a0.787,0.787 0 0 1 0,-0.463c0.047,-0.154 0.137,-0.3 0.292,-0.456l0.04,-0.04c0.155,-0.155 0.302,-0.245 0.457,-0.293a0.787,0.787 0 0 1 0.463,0c0.153,0.047 0.3,0.137 0.455,0.292l4.262,4.264l4.263,-4.263c0.155,-0.155 0.302,-0.245 0.455,-0.292a0.787,0.787 0 0 1 0.463,0c0.154,0.047 0.3,0.137 0.456,0.292l0.04,0.04c0.155,0.155 0.245,0.302 0.292,0.456a0.787,0.787 0 0 1 0,0.463c-0.047,0.153 -0.137,0.3 -0.292,0.455l-4.263,4.263z" fill="#FC8A15" fill-rule="evenodd" id="svg_1"/>
  <rect fill="#44bb44" height="16.184331" id="svg_2" rx="1.5" ry="1.5" stroke="#000000" stroke-dasharray="null" stroke-linecap="null" stroke-linejoin="null" stroke-width="0" transform="rotate(44.9431 5.98818 6.02226)" width="2.37194" x="4.802209" y="-2.069909"/>
  <rect fill="#44bb44" height="16.104658" id="svg_4" rx="1.2" ry="1.2" stroke="#000000" stroke-dasharray="null" stroke-linecap="null" stroke-linejoin="null" stroke-width="0" transform="rotate(-45.3016 6.03386 5.98799)" width="2.258114" x="4.904805" y="-2.064335"/>
 </g>
</svg>