<?xml version="1.0"?>
<svg width="16" height="12" xmlns="http://www.w3.org/2000/svg" xmlns:svg="http://www.w3.org/2000/svg">
 <g class="layer">
  <title>Layer 1</title>
  <g fill="#FC8A15" fill-rule="evenodd" id="svg_1">
   <path d="m0.971,0l14.059,0c0.218,0 0.386,0.04 0.528,0.116a0.787,0.787 0 0 1 0.327,0.327c0.076,0.142 0.116,0.31 0.116,0.528l0,0.058c0,0.218 -0.04,0.386 -0.116,0.528a0.787,0.787 0 0 1 -0.327,0.327c-0.142,0.076 -0.31,0.116 -0.528,0.116l-14.06,0c-0.218,0 -0.386,-0.04 -0.528,-0.116a0.787,0.787 0 0 1 -0.327,-0.327a1.087,1.087 0 0 1 -0.115,-0.528l0,-0.059c0,-0.217 0.04,-0.385 0.116,-0.527a0.787,0.787 0 0 1 0.327,-0.327c0.142,-0.076 0.31,-0.116 0.528,-0.116zm0,5l14.059,0c0.218,0 0.386,0.04 0.528,0.116a0.787,0.787 0 0 1 0.327,0.327c0.076,0.142 0.116,0.31 0.116,0.528l0,0.058c0,0.218 -0.04,0.386 -0.116,0.528a0.787,0.787 0 0 1 -0.327,0.327c-0.142,0.076 -0.31,0.116 -0.528,0.116l-14.06,0c-0.218,0 -0.386,-0.04 -0.528,-0.116a0.787,0.787 0 0 1 -0.327,-0.327a1.087,1.087 0 0 1 -0.115,-0.528l0,-0.059c0,-0.218 0.04,-0.386 0.116,-0.528a0.787,0.787 0 0 1 0.327,-0.327c0.142,-0.075 0.31,-0.115 0.528,-0.115zm0,5l14.059,0c0.218,0 0.386,0.04 0.528,0.116a0.787,0.787 0 0 1 0.327,0.327c0.076,0.142 0.116,0.31 0.116,0.528l0,0.058c0,0.218 -0.04,0.386 -0.116,0.528a0.787,0.787 0 0 1 -0.327,0.327c-0.142,0.076 -0.31,0.116 -0.528,0.116l-14.06,0c-0.218,0 -0.386,-0.04 -0.528,-0.116a0.787,0.787 0 0 1 -0.327,-0.327a1.087,1.087 0 0 1 -0.115,-0.528l0,-0.058c0,-0.218 0.04,-0.386 0.116,-0.528a0.787,0.787 0 0 1 0.327,-0.327c0.142,-0.076 0.31,-0.116 0.528,-0.116z" id="svg_2"/>
  </g>
  <rect fill="#44bb44" height="2.01005" id="svg_3" rx="0.9" ry="0.9" stroke="#000000" stroke-dasharray="null" stroke-linecap="null" stroke-linejoin="null" stroke-width="0" width="16.034719" x="-0.022384" y="9.984925"/>
  <rect fill="#44bb44" height="0" id="svg_6" stroke="#000000" stroke-dasharray="null" stroke-linecap="null" stroke-linejoin="null" stroke-width="0" width="0.251256" x="7.766561" y="1.282321"/>
  <rect fill="#44bb44" height="2.01005" id="svg_8" rx="0.9" ry="0.9" stroke="#000000" stroke-dasharray="null" stroke-linecap="null" stroke-linejoin="null" stroke-width="0" width="16.034719" x="-0.022384" y="0.003198"/>
  <rect fill="#44bb44" height="2.01005" id="svg_9" rx="0.9" ry="0.9" stroke="#000000" stroke-dasharray="null" stroke-linecap="null" stroke-linejoin="null" stroke-width="0" width="16.034719" x="0.000457" y="4.982641"/>
 </g>
</svg>